# xmcd
#
# Track frame offsets: 
#        150
#        43987
#        54517
#        75477
#        91148
#        106046
#        117343
#        131435
#        140947
#        200010
#        221877
#        234081
#        244261
#        258107
#
# Disc length: 4292 seconds
#
# Revision: 0
# Processed by: cddbd v1.5.2PL0 Copyright (c) Steve Scherf et al.
# Submitted via: ExactAudioCopyFreeDBPlugin 1.0
#
DISCID=c410c20e
DTITLE=Victor Tretyakov - Legendary Russian soloists of the 20'th Cent
DTITLE=ury CD 69
DYEAR=1967
DGENRE=Classical
TTITLE0=Prelude and Toccata
TTITLE1=2 Preludes
TTITLE2=Feuille d'album
TTITLE3=Zapateado
TTITLE4=Piece en forme d'Habanera
TTITLE5=Humoresque
TTITLE6=El Campinello
TTITLE7=Hungarian Dance No. 7
TTITLE8=Suite on Spanish Folk songs
TTITLE9=Nocturne in E minor
TTITLE10=Hungarian Dance in F major
TTITLE11=Hungarian Dance in G major
TTITLE12=Hungarian Dance in D minor
TTITLE13=Poeme elegiaque
EXTD=
EXTT0=
EXTT1=
EXTT2=
EXTT3=
EXTT4=
EXTT5=
EXTT6=
EXTT7=
EXTT8=
EXTT9=
EXTT10=
EXTT11=
EXTT12=
EXTT13=
PLAYORDER=
